<?xml version="1.0" encoding="UTF-8"?>
<svg width="512" height="512" viewBox="0 0 512 512" fill="none" xmlns="http://www.w3.org/2000/svg">
    <rect width="512" height="512" rx="128" fill="url(#gradient)"/>
    <path d="M256 128C176.5 128 112 192.5 112 272C112 351.5 176.5 416 256 416C335.5 416 400 351.5 400 272C400 192.5 335.5 128 256 128ZM256 384C194.1 384 144 333.9 144 272C144 210.1 194.1 160 256 160C317.9 160 368 210.1 368 272C368 333.9 317.9 384 256 384Z" fill="white"/>
    <path d="M256 208C220.7 208 192 236.7 192 272C192 307.3 220.7 336 256 336C291.3 336 320 307.3 320 272C320 236.7 291.3 208 256 208Z" fill="white"/>
    <defs>
        <linearGradient id="gradient" x1="0" y1="0" x2="512" y2="512" gradientUnits="userSpaceOnUse">
            <stop offset="0%" style="stop-color:#7C3AED"/>
            <stop offset="100%" style="stop-color:#3B82F6"/>
        </linearGradient>
    </defs>
</svg>
